<svg width="720" height="420" viewBox="0 0 720 420" xmlns="http://www.w3.org/2000/svg" font-family="'Cascadia Code','Fira Code','Courier New',monospace">
  <rect width="720" height="420" rx="10" fill="#0a0a12"/>
  <!-- header -->
  <rect width="720" height="48" rx="10" fill="#0f0f1e"/>
  <rect y="32" width="720" height="16" fill="#0f0f1e"/>
  <text x="20" y="30" fill="#7b8cde" font-size="16" font-weight="bold">⚡ FLUX</text>
  <text x="76" y="30" fill="#555" font-size="12">autonomous yield optimizer</text>
  <text x="540" y="30" fill="#27c93f" font-size="11">● RUNNING</text>
  <text x="614" y="30" fill="#555" font-size="11">PAPER MODE</text>

  <!-- stat cards -->
  <rect x="16" y="64" width="160" height="72" rx="6" fill="#111120" stroke="#1e1e3a" stroke-width="1"/>
  <text x="28" y="84" fill="#555" font-size="10">TOTAL DEPLOYED</text>
  <text x="28" y="114" fill="#e0e0e0" font-size="26" font-weight="bold">$10,000</text>
  <text x="28" y="128" fill="#555" font-size="10">across 3 protocols</text>

  <rect x="188" y="64" width="160" height="72" rx="6" fill="#111120" stroke="#1e1e3a" stroke-width="1"/>
  <text x="200" y="84" fill="#555" font-size="10">BLENDED APY</text>
  <text x="200" y="114" fill="#7b8cde" font-size="26" font-weight="bold">8.14%</text>
  <text x="200" y="128" fill="#555" font-size="10">↑ 1.2% since last cycle</text>

  <rect x="360" y="64" width="160" height="72" rx="6" fill="#111120" stroke="#1e1e3a" stroke-width="1"/>
  <text x="372" y="84" fill="#555" font-size="10">EARNED (30d)</text>
  <text x="372" y="114" fill="#27c93f" font-size="26" font-weight="bold">$67.83</text>
  <text x="372" y="128" fill="#555" font-size="10">annualized $813.60</text>

  <rect x="532" y="64" width="172" height="72" rx="6" fill="#111120" stroke="#1e1e3a" stroke-width="1"/>
  <text x="544" y="84" fill="#555" font-size="10">NEXT REBALANCE</text>
  <text x="544" y="114" fill="#e0e0e0" font-size="26" font-weight="bold">47m</text>
  <text x="544" y="128" fill="#555" font-size="10">cycle interval: 1h</text>

  <!-- rate comparison table -->
  <text x="20" y="162" fill="#444" font-size="10">LIVE RATE COMPARISON</text>
  <rect x="16" y="168" width="688" height="1" fill="#1a1a2e"/>

  <!-- table header -->
  <text x="28" y="186" fill="#444" font-size="10">PROTOCOL</text>
  <text x="140" y="186" fill="#444" font-size="10">ASSET</text>
  <text x="210" y="186" fill="#444" font-size="10">SUPPLY APY</text>
  <text x="310" y="186" fill="#444" font-size="10">UTILIZATION</text>
  <text x="420" y="186" fill="#444" font-size="10">LIQUIDITY</text>
  <text x="540" y="186" fill="#444" font-size="10">ALLOCATED</text>
  <text x="640" y="186" fill="#444" font-size="10">STATUS</text>

  <!-- rows -->
  <rect x="16" y="192" width="688" height="30" rx="3" fill="#0d1a0d"/>
  <text x="28" y="212" fill="#7b8cde" font-size="11">Kamino</text>
  <text x="140" y="212" fill="#e0e0e0" font-size="11">USDC</text>
  <text x="210" y="212" fill="#27c93f" font-size="11">8.20%</text>
  <text x="310" y="212" fill="#aaa" font-size="11">75.0%</text>
  <text x="420" y="212" fill="#aaa" font-size="11">$13.0M</text>
  <text x="540" y="212" fill="#27c93f" font-size="11">$5,000</text>
  <text x="640" y="212" fill="#27c93f" font-size="10">● active</text>

  <rect x="16" y="226" width="688" height="30" rx="3" fill="#111120"/>
  <text x="28" y="246" fill="#7b8cde" font-size="11">Kamino</text>
  <text x="140" y="246" fill="#e0e0e0" font-size="11">SOL</text>
  <text x="210" y="246" fill="#27c93f" font-size="11">6.50%</text>
  <text x="310" y="246" fill="#aaa" font-size="11">70.0%</text>
  <text x="420" y="246" fill="#aaa" font-size="11">$30.0M</text>
  <text x="540" y="246" fill="#27c93f" font-size="11">$3,000</text>
  <text x="640" y="246" fill="#27c93f" font-size="10">● active</text>

  <rect x="16" y="260" width="688" height="30" rx="3" fill="#0d1a0d"/>
  <text x="28" y="280" fill="#7b8cde" font-size="11">MarginFi</text>
  <text x="140" y="280" fill="#e0e0e0" font-size="11">USDC</text>
  <text x="210" y="280" fill="#aaa" font-size="11">7.10%</text>
  <text x="310" y="280" fill="#aaa" font-size="11">68.0%</text>
  <text x="420" y="280" fill="#aaa" font-size="11">$10.0M</text>
  <text x="540" y="280" fill="#27c93f" font-size="11">$2,000</text>
  <text x="640" y="280" fill="#27c93f" font-size="10">● active</text>

  <rect x="16" y="294" width="688" height="30" rx="3" fill="#111120"/>
  <text x="28" y="314" fill="#555" font-size="11">Solend</text>
  <text x="140" y="314" fill="#aaa" font-size="11">USDC</text>
  <text x="210" y="314" fill="#555" font-size="11">5.90%</text>
  <text x="310" y="314" fill="#aaa" font-size="11">60.0%</text>
  <text x="420" y="314" fill="#aaa" font-size="11">$8.0M</text>
  <text x="540" y="314" fill="#555" font-size="11">—</text>
  <text x="640" y="314" fill="#555" font-size="10">skipped</text>

  <!-- last rebalance -->
  <rect x="16" y="338" width="688" height="1" fill="#1a1a2e"/>
  <text x="20" y="358" fill="#444" font-size="10">LAST REBALANCE — shifted $2,000 from MarginFi SOL → Kamino USDC (+1.7% APY improvement)</text>
  <text x="20" y="375" fill="#444" font-size="10">Agent reasoning: Kamino USDC utilization stable at 75%, Kamino SOL marginally lower risk-adjusted return vs stablecoin at current funding</text>

  <!-- footer -->
  <rect x="0" y="396" width="720" height="24" rx="4" fill="#0a0a12"/>
  <text x="20" y="412" fill="#333" font-size="10">paper mode — simulated positions only</text>
  <text x="680" y="412" fill="#333" font-size="10">v0.1.0</text>
</svg>
